<?xml version="1.0" standalone="no"?>
<!DOCTYPE svg PUBLIC "-//W3C//DTD SVG 20010904//EN"
 "http://www.w3.org/TR/2001/REC-SVG-20010904/DTD/svg10.dtd">
<svg version="1.0" xmlns="http://www.w3.org/2000/svg"
 width="300.000000pt" height="78.000000pt" viewBox="0 0 300.000000 78.000000"
 preserveAspectRatio="xMidYMid meet">

<g transform="translate(0.000000,78.000000) scale(0.100000,-0.100000)"
fill="#000000" stroke="none">
<path d="M177 773 c51 -2 135 -2 185 0 51 1 10 3 -92 3 -102 0 -143 -2 -93 -3z"/>
<path d="M72 695 c-18 -39 -14 -63 14 -92 l26 -25 -3 -242 c-1 -132 2 -249 6
-258 6 -16 24 -18 174 -18 91 0 183 5 204 11 45 12 115 72 123 105 3 13 8 24
10 24 2 0 23 -20 47 -44 35 -34 57 -47 98 -56 72 -16 159 0 216 39 l42 30 13
-30 c12 -27 16 -29 69 -29 43 0 58 4 63 16 3 9 6 66 7 127 1 93 3 107 12 84 6
-16 29 -74 52 -130 l40 -102 47 -3 c41 -3 47 0 53 20 20 74 79 228 86 228 5 0
9 -43 9 -95 0 -52 5 -106 12 -120 11 -25 14 -26 87 -23 61 2 75 6 73 18 -2 8
-6 40 -8 70 l-5 55 17 -30 c25 -45 65 -85 107 -107 54 -27 220 -28 275 -1 35
17 37 21 42 73 l5 55 19 -42 c28 -62 63 -91 129 -104 111 -23 223 19 258 95
16 35 19 67 19 204 0 89 4 162 8 162 10 0 102 -191 102 -210 0 -7 -21 -51 -46
-97 -43 -78 -45 -86 -32 -113 12 -29 16 -30 75 -30 35 0 66 -1 71 -1 8 -2 7
-4 127 253 60 128 93 188 106 191 23 6 25 37 4 77 -13 26 -20 29 -74 32 l-60
3 -17 -50 c-20 -62 -57 -133 -50 -95 3 14 14 51 26 84 12 32 19 60 16 63 -9 9
-26 -8 -26 -27 0 -10 -13 -49 -29 -86 l-29 -68 -16 38 c-9 21 -16 48 -16 61 0
12 -7 36 -16 53 -14 29 -20 32 -60 32 -32 0 -44 -4 -44 -15 0 -8 27 -71 60
-139 33 -69 60 -134 60 -145 0 -12 -18 -58 -41 -103 -30 -59 -39 -87 -34 -107
6 -25 6 -25 -12 -8 -17 16 -16 21 25 102 23 47 42 96 42 109 0 13 -27 78 -60
145 -33 67 -60 131 -60 142 0 17 -7 19 -69 19 -71 0 -89 -11 -70 -41 5 -8 9
-87 9 -177 l0 -164 -29 -29 c-31 -31 -53 -35 -95 -19 l-26 10 0 184 c0 102 -4
196 -10 210 -8 23 -15 26 -59 26 -35 0 -51 -4 -55 -16 -11 -27 -7 -54 9 -60
12 -5 15 -32 15 -153 0 -80 5 -163 10 -183 15 -52 53 -94 103 -111 23 -9 34
-16 24 -16 -56 -3 -128 60 -147 127 -5 20 -10 101 -10 178 0 117 -3 143 -15
148 -17 6 -20 39 -5 67 9 16 7 19 -14 19 -13 0 -26 -4 -28 -10 -2 -6 -19 -4
-43 5 -53 19 -149 19 -214 -1 -55 -16 -135 -79 -146 -115 -11 -35 -25 -20 -25
29 -1 68 -23 94 -79 90 l-43 -3 -51 -138 c-28 -75 -54 -134 -59 -129 -4 4 10
53 32 109 47 118 58 163 41 163 -6 0 -14 -8 -17 -17 -20 -62 -100 -263 -104
-263 -3 0 -21 42 -39 93 -19 50 -45 113 -58 140 l-23 47 -60 0 c-48 0 -61 -4
-70 -19 -15 -30 -12 -48 10 -54 19 -5 20 -11 15 -74 -19 -245 -25 -355 -20
-364 4 -5 -1 -9 -11 -9 -15 0 -16 9 -9 83 4 45 10 140 15 212 7 129 7 130 -16
148 -22 18 -23 20 -9 48 14 26 14 29 0 29 -8 0 -21 -12 -27 -27 -7 -16 -13
-30 -14 -32 -2 -1 -15 9 -31 23 -33 31 -76 34 -100 7 -16 -20 -17 -19 -46 5
-35 30 -60 30 -117 2 -56 -29 -104 -91 -127 -166 -20 -68 -21 -68 -34 -55 -8
8 -6 20 5 41 25 49 20 109 -13 168 -45 78 -66 84 -269 84 l-170 0 -12 -30
c-13 -32 -2 -60 26 -60 11 0 14 -51 16 -265 3 -232 1 -265 -12 -263 -13 3 -14
38 -11 259 l3 256 -31 11 c-35 12 -37 21 -16 62 9 17 12 30 7 30 -5 0 -14 -11
-20 -25z m2367 -95 c21 -99 10 -317 -17 -334 -4 -2 -7 83 -7 190 0 107 3 194
7 194 3 0 11 -23 17 -50z m-2031 4 c26 -18 29 -52 7 -80 -15 -18 -16 -17 -10
12 4 22 0 38 -15 57 -24 30 -16 35 18 11z m1293 -24 c-39 -54 -55 -117 -49
-194 9 -106 84 -215 160 -231 15 -4 31 -11 34 -17 7 -11 -23 -6 -69 11 -43 17
-99 74 -123 126 -27 57 -33 167 -12 226 14 41 65 119 79 119 5 0 -4 -18 -20
-40z m-1005 8 c-45 -61 -61 -112 -61 -193 0 -68 5 -88 28 -132 31 -60 76 -98
138 -117 33 -11 38 -14 19 -15 -40 -1 -102 33 -142 77 -70 78 -87 215 -38 313
21 41 57 89 68 89 2 0 -3 -10 -12 -22z m-312 -30 c8 -13 6 -24 -10 -45 -12
-15 -29 -29 -38 -31 -13 -3 -16 6 -16 48 0 50 1 51 26 48 15 -2 32 -11 38 -20z
m535 -7 c47 -47 52 -193 11 -268 -12 -21 -18 -29 -15 -18 17 51 27 144 21 187
-4 26 -18 63 -31 82 -26 39 -17 48 14 17z m1029 -15 c15 -8 36 -23 46 -35 26
-29 52 -26 64 7 9 22 11 13 11 -53 0 -59 -2 -75 -10 -62 -14 24 -124 25 -133
1 -11 -30 -6 -52 14 -57 15 -4 20 -14 20 -40 0 -20 -4 -39 -10 -42 -6 -4 -10
8 -10 29 0 25 -6 38 -20 46 -22 12 -27 49 -8 68 9 9 9 12 0 12 -22 0 -34 -49
-20 -81 7 -16 17 -29 21 -29 5 0 7 -15 5 -32 -3 -31 -6 -33 -43 -36 -63 -5
-87 27 -93 123 -8 124 32 193 111 195 15 0 40 -6 55 -14z m-1052 -41 c12 -18
17 -46 16 -93 0 -74 -13 -116 -44 -150 -86 -90 -144 111 -68 236 26 42 71 45
96 7z m632 -214 c5 -86 4 -130 -3 -128 -10 4 -25 218 -17 250 9 35 13 7 20
-122z m-258 7 c24 -62 47 -119 53 -126 5 -7 7 -15 4 -19 -9 -8 -37 16 -37 32
0 7 -18 57 -40 111 -22 54 -40 104 -40 112 0 32 20 -5 60 -110z m-814 71 c23
-25 24 -94 1 -116 -13 -13 -14 -10 -10 32 5 37 2 52 -16 76 -26 35 -5 42 25 8z
m-41 -32 c14 -11 16 -21 11 -51 -9 -47 -38 -76 -75 -76 -27 0 -28 2 -34 62 -3
34 -3 66 -1 70 8 13 79 9 99 -5z"/>
<path d="M2221 718 c2 -2 18 -14 34 -28 l30 -25 -24 28 c-14 15 -29 27 -34 27
-6 0 -8 -1 -6 -2z"/>
<path d="M1 654 c0 -11 3 -14 6 -6 3 7 2 16 -1 19 -3 4 -6 -2 -5 -13z"/>
<path d="M2992 580 c0 -14 2 -19 5 -12 2 6 2 18 0 25 -3 6 -5 1 -5 -13z"/>
<path d="M2969 523 c-13 -16 -12 -17 4 -4 16 13 21 21 13 21 -2 0 -10 -8 -17
-17z"/>
<path d="M1216 93 c-6 -14 -5 -15 5 -6 7 7 10 15 7 18 -3 3 -9 -2 -12 -12z"/>
<path d="M2500 86 c0 -2 8 -10 18 -17 15 -13 16 -12 3 4 -13 16 -21 21 -21 13z"/>
<path d="M168 3 c18 -2 45 -2 60 0 15 2 0 4 -33 4 -33 0 -45 -2 -27 -4z"/>
</g>
</svg>
