<?xml version="1.0" standalone="no"?>
<!DOCTYPE svg PUBLIC "-//W3C//DTD SVG 20010904//EN"
 "http://www.w3.org/TR/2001/REC-SVG-20010904/DTD/svg10.dtd">
<svg version="1.0" xmlns="http://www.w3.org/2000/svg"
 width="232.000000pt" height="232.000000pt" viewBox="0 0 232.000000 232.000000"
 preserveAspectRatio="xMidYMid meet">

<g transform="translate(0.000000,232.000000) scale(0.100000,-0.100000)"
fill="#000000" stroke="none">
<path d="M178 1560 c-35 -21 -15 -70 27 -70 21 0 21 -1 9 -62 -14 -66 -17
-275 -5 -318 8 -28 35 -38 57 -20 11 10 13 30 8 104 l-7 92 70 11 c128 20 185
65 187 148 1 51 -14 72 -74 98 -53 24 -243 35 -272 17z m251 -80 c54 -29 -6
-91 -96 -98 -59 -5 -58 -7 -41 68 l12 52 52 -5 c29 -3 62 -10 73 -17z"/>
<path d="M1770 1551 c-18 -34 -12 -79 10 -86 12 -4 27 -1 35 5 28 23 12 100
-20 100 -8 0 -19 -9 -25 -19z"/>
<path d="M1672 1548 c-18 -18 -15 -53 7 -79 16 -20 23 -22 38 -13 26 16 27 46
3 77 -24 30 -31 32 -48 15z"/>
<path d="M950 1535 c-52 -8 -116 -14 -141 -14 -50 -1 -73 -18 -67 -48 3 -15
12 -17 61 -15 l57 4 0 -131 c0 -108 4 -140 21 -187 59 -157 272 -254 558 -254
197 1 391 35 531 95 138 59 190 112 190 190 -1 60 -21 86 -101 130 -95 53
-104 67 -61 106 18 16 41 29 52 29 21 0 40 -27 40 -58 0 -28 25 -34 51 -13 44
35 -1 134 -66 147 -44 8 -116 -25 -146 -67 -54 -76 -28 -149 68 -194 32 -15
66 -34 76 -43 85 -75 -158 -197 -464 -233 -124 -14 -328 -6 -413 16 -117 31
-218 109 -247 191 -14 39 -20 266 -8 278 3 4 39 10 80 14 74 7 74 7 74 37 0
37 -12 39 -145 20z"/>
<path d="M605 1494 c-30 -32 -66 -142 -90 -273 -20 -114 -15 -144 23 -139 25
3 27 7 30 51 4 55 16 64 98 69 l49 3 10 -60 c9 -50 14 -61 32 -63 35 -5 46 28
33 97 -6 32 -8 65 -4 74 3 10 -4 24 -19 37 -17 15 -31 44 -42 91 -19 75 -51
132 -78 137 -9 2 -28 -9 -42 -24z m59 -148 c9 -27 16 -55 16 -62 0 -12 -68
-30 -77 -20 -3 3 2 37 12 76 10 39 21 68 25 63 4 -4 15 -30 24 -57z"/>
<path d="M1262 1508 c-16 -16 -15 -34 4 -63 13 -20 15 -44 12 -123 -6 -141
-43 -197 -104 -157 -57 37 -79 117 -52 192 10 28 10 36 -4 49 -37 37 -78 -25
-78 -118 0 -148 134 -256 230 -188 82 59 115 304 51 390 -21 29 -41 36 -59 18z"/>
<path d="M1380 1499 c-9 -16 -8 -24 4 -38 11 -12 19 -54 26 -132 15 -169 14
-174 -16 -187 -34 -16 -30 -56 7 -60 32 -4 140 67 183 120 43 55 48 131 13
191 -30 51 -80 92 -138 112 -55 20 -66 19 -79 -6z m158 -151 c15 -30 20 -51
15 -64 -10 -25 -62 -88 -68 -82 -2 2 -7 53 -11 113 l-7 110 24 -16 c13 -9 34
-36 47 -61z"/>
<path d="M1855 1496 c-20 -30 -17 -55 8 -70 15 -9 22 -7 38 13 26 32 22 75 -8
79 -14 2 -27 -5 -38 -22z"/>
<path d="M1597 1483 c-21 -21 12 -93 42 -93 19 0 39 30 34 50 -9 33 -58 61
-76 43z"/>
<path d="M1714 1411 c-44 -27 -78 -109 -71 -175 4 -42 10 -55 42 -84 34 -31
42 -34 82 -29 49 5 83 31 107 82 35 74 5 184 -58 210 -46 20 -65 19 -102 -4z
m90 -73 c25 -41 28 -66 10 -103 -22 -48 -48 -61 -80 -41 -43 29 -42 75 2 144
8 12 23 22 34 22 11 0 26 -10 34 -22z"/>
<path d="M232 828 c-15 -15 -15 -61 0 -76 15 -15 51 -15 66 0 15 15 15 61 0
76 -7 7 -21 12 -33 12 -12 0 -26 -5 -33 -12z m56 -42 c-2 -13 -10 -21 -23 -21
-23 0 -32 30 -14 51 16 19 41 -1 37 -30z"/>
<path d="M940 790 c0 -50 0 -50 33 -50 40 0 57 15 57 50 0 35 -17 50 -57 50
-33 0 -33 0 -33 -50z m65 0 c0 -16 -6 -26 -17 -28 -14 -3 -18 3 -18 28 0 25 4
31 18 28 11 -2 17 -12 17 -28z"/>
<path d="M1062 828 c-7 -7 -12 -27 -12 -45 0 -27 5 -34 27 -39 14 -4 33 -2 42
3 20 13 26 60 10 79 -14 17 -51 18 -67 2z m56 -42 c-2 -13 -10 -21 -23 -21
-23 0 -32 30 -14 51 16 19 41 -1 37 -30z"/>
<path d="M1167 833 c-14 -13 -6 -42 13 -48 11 -3 20 -11 20 -16 0 -5 -9 -9
-20 -9 -11 0 -20 -5 -20 -11 0 -6 12 -9 27 -7 37 4 43 35 12 59 l-24 19 23 0
c12 0 22 5 22 10 0 11 -43 14 -53 3z"/>
<path d="M2086 763 c-11 -11 -6 -23 9 -23 8 0 15 4 15 9 0 13 -16 22 -24 14z"/>
</g>
</svg>
