<?xml version="1.0" standalone="no"?>
<!DOCTYPE svg PUBLIC "-//W3C//DTD SVG 20010904//EN"
 "http://www.w3.org/TR/2001/REC-SVG-20010904/DTD/svg10.dtd">
<svg version="1.0" xmlns="http://www.w3.org/2000/svg"
 width="325.000000pt" height="260.000000pt" viewBox="0 0 325.000000 260.000000"
 preserveAspectRatio="xMidYMid meet">

<g transform="translate(0.000000,260.000000) scale(0.100000,-0.100000)"
fill="#000000" stroke="none">
<path d="M1400 1889 c-140 -105 -264 -199 -275 -210 -20 -19 -19 -19 26 -13
26 4 49 2 52 -3 5 -8 127 -537 127 -551 0 -5 190 7 201 13 3 3 -7 55 -23 117
-50 191 -50 438 0 438 33 0 64 30 58 55 -5 19 0 25 31 38 21 8 44 11 53 7 8
-5 30 -14 49 -21 49 -18 88 -63 112 -131 20 -55 51 -91 105 -125 18 -11 17
-12 -8 -12 -15 -1 -39 -11 -54 -24 -22 -19 -25 -28 -20 -55 10 -44 43 -81 89
-102 l39 -18 -37 -12 c-89 -29 -240 14 -317 92 -27 26 -48 42 -48 36 0 -20 50
-78 81 -94 21 -11 39 -34 58 -77 40 -88 42 -90 148 -77 164 19 153 14 153 70
0 45 4 53 44 94 57 56 76 114 52 151 -11 17 -25 25 -46 25 -16 0 -31 4 -34 8
-3 5 -2 50 1 101 l6 93 60 -5 c32 -3 55 -2 51 3 -50 47 -461 380 -469 380 -5
0 -125 -86 -265 -191z m465 8 c231 -192 219 -180 173 -175 l-38 4 0 -96 c0
-122 -4 -129 -64 -106 -46 18 -96 72 -96 106 0 8 -11 35 -25 59 -14 23 -25 45
-25 47 0 12 52 2 56 -11 7 -18 55 -20 72 -3 24 24 14 65 -25 97 -21 17 -46 31
-56 31 -34 0 -87 -29 -99 -54 -12 -29 -28 -34 -28 -11 0 8 -7 15 -15 15 -8 0
-15 4 -15 9 0 12 -79 -6 -108 -25 -19 -12 -29 -13 -59 -3 -69 23 -156 -10
-188 -71 -22 -43 -20 -125 5 -150 22 -22 69 -27 88 -8 7 7 12 30 12 53 0 39
22 87 34 74 3 -3 1 -21 -5 -39 -19 -53 -5 -267 26 -389 14 -57 24 -105 23
-106 -2 -1 -37 -5 -78 -9 l-75 -6 -39 172 c-89 402 -85 388 -114 388 -20 0 30
42 218 183 135 101 250 181 255 178 6 -3 91 -72 190 -154z m215 -462 c0 -36
-17 -39 -22 -5 -3 17 -2 32 0 35 10 9 22 -7 22 -30z m-203 -182 c40 2 79 10
88 17 15 12 16 9 13 -30 -2 -29 -8 -44 -18 -45 -8 -1 -49 -5 -90 -9 -41 -4
-83 -9 -92 -12 -17 -5 -35 20 -58 80 l-9 24 47 -15 c30 -9 73 -13 119 -10z"/>
<path d="M1754 1606 c-3 -8 -4 -21 -1 -28 4 -8 6 -6 6 5 1 20 36 24 45 5 3 -7
5 -4 3 7 -3 25 -44 33 -53 11z"/>
<path d="M1647 1593 c-11 -10 -8 -46 4 -63 9 -13 10 -13 6 2 -3 9 1 24 8 35
12 15 17 16 34 5 23 -13 28 -3 9 16 -13 13 -50 16 -61 5z"/>
<path d="M1190 925 l0 -85 30 0 c25 0 30 4 30 25 0 21 5 25 29 25 37 0 61 23
61 59 0 43 -28 61 -93 61 l-57 0 0 -85z m87 22 c-6 -20 -27 -19 -27 2 0 14 5
19 15 14 9 -3 14 -10 12 -16z"/>
<path d="M1360 925 l0 -85 60 0 c53 0 60 2 60 20 0 15 -7 20 -24 20 -14 0 -28
5 -31 10 -4 6 5 10 19 10 21 0 26 5 26 25 0 20 -5 25 -26 25 -14 0 -23 4 -19
10 3 6 17 10 31 10 17 0 24 5 24 20 0 18 -7 20 -60 20 l-60 0 0 -85z"/>
<path d="M1500 985 c0 -16 6 -25 15 -25 12 0 15 -13 15 -60 l0 -60 30 0 c30 0
30 0 30 56 0 47 3 57 20 61 13 3 20 14 20 29 0 23 -3 24 -65 24 -63 0 -65 -1
-65 -25z"/>
<path d="M1666 991 c-10 -11 -16 -31 -14 -47 2 -22 10 -30 36 -38 43 -12 42
-30 -2 -22 -28 5 -34 3 -39 -14 -7 -26 33 -44 79 -35 42 7 56 26 52 67 -2 27
-8 34 -35 42 -41 11 -44 30 -3 21 18 -4 30 -2 30 3 0 6 3 17 6 26 10 25 -87
22 -110 -3z"/>
<path d="M1190 700 l0 -90 30 0 c28 0 30 3 30 35 0 28 4 35 20 35 16 0 20 -7
20 -35 0 -32 2 -35 30 -35 l30 0 0 90 0 90 -30 0 c-27 0 -30 -3 -30 -30 0 -23
-4 -30 -20 -30 -16 0 -20 7 -20 30 0 27 -3 30 -30 30 l-30 0 0 -90z"/>
<path d="M1406 765 c-19 -17 -26 -34 -26 -60 0 -48 13 -70 49 -85 63 -26 141
17 141 77 0 31 -25 79 -45 87 -38 14 -92 6 -119 -19z m81 -33 c6 -4 12 -14 13
-22 5 -34 0 -41 -27 -38 -31 3 -42 30 -23 53 14 17 20 18 37 7z"/>
<path d="M1600 716 c0 -66 3 -77 22 -90 34 -24 85 -20 113 9 22 21 25 33 25
90 l0 65 -30 0 c-28 0 -29 -1 -32 -57 -2 -46 -7 -59 -20 -61 -16 -3 -18 5 -18
57 l0 61 -30 0 -30 0 0 -74z"/>
<path d="M1812 774 c-17 -12 -22 -24 -20 -47 2 -26 9 -34 36 -42 40 -12 42
-30 2 -22 -23 5 -32 2 -41 -14 -14 -26 -10 -29 40 -36 57 -8 93 17 89 60 -2
25 -10 36 -38 49 -35 17 -34 22 6 19 20 -2 40 30 26 43 -12 12 -79 5 -100 -10z"/>
<path d="M1950 700 l0 -90 60 0 c57 0 60 1 60 25 0 21 -5 25 -30 25 -16 0 -30
5 -30 10 0 6 11 10 25 10 20 0 25 5 25 24 0 19 -6 26 -27 29 l-28 4 28 2 c22
1 27 6 27 26 0 24 -3 25 -55 25 l-55 0 0 -90z"/>
</g>
</svg>
