<?xml version="1.0" standalone="no"?>
<!DOCTYPE svg PUBLIC "-//W3C//DTD SVG 20010904//EN"
 "http://www.w3.org/TR/2001/REC-SVG-20010904/DTD/svg10.dtd">
<svg version="1.0" xmlns="http://www.w3.org/2000/svg"
 width="225.000000pt" height="225.000000pt" viewBox="0 0 225.000000 225.000000"
 preserveAspectRatio="xMidYMid meet">

<g transform="translate(0.000000,225.000000) scale(0.100000,-0.100000)"
fill="#000000" stroke="none">
<path d="M1176 2084 c-11 -28 -6 -51 15 -78 12 -15 20 -28 18 -30 -2 -2 -41
-23 -87 -47 -78 -41 -82 -44 -57 -52 20 -7 38 -2 88 24 34 17 70 37 79 42 13
8 30 3 75 -21 32 -18 91 -49 131 -69 39 -21 72 -42 72 -48 0 -5 -5 -27 -10
-47 -10 -33 -16 -39 -58 -51 l-46 -14 44 -6 c25 -3 54 -7 64 -9 18 -3 26 19
47 137 3 16 -19 32 -121 87 -69 37 -129 69 -134 71 -5 2 1 17 13 34 14 19 21
41 19 59 -3 29 -4 29 -75 31 -56 2 -73 -1 -77 -13z m114 -35 c0 -3 -9 -14 -20
-24 -19 -17 -21 -17 -40 0 -28 26 -25 30 20 30 22 0 40 -2 40 -6z"/>
<path d="M677 1896 c-71 -26 -142 -90 -182 -168 -14 -25 -35 -62 -48 -81 -21
-31 -25 -51 -31 -169 -4 -90 -3 -145 5 -166 22 -64 107 -78 149 -25 l20 26 41
-47 c64 -73 107 -91 214 -91 85 0 93 2 142 33 84 54 133 142 133 240 l0 59 30
-5 c34 -5 34 -6 19 -67 -26 -101 40 -232 146 -288 58 -31 183 -31 242 1 87 46
131 114 177 276 28 96 34 176 14 176 -7 0 -33 -12 -57 -25 l-44 -26 -26 25
c-47 44 -112 70 -182 74 l-65 4 -17 49 c-10 27 -24 49 -32 49 -8 0 -28 -21
-46 -47 -18 -27 -34 -50 -36 -52 -4 -5 -109 104 -144 151 -18 22 -42 39 -70
47 -24 8 -72 24 -106 37 -71 28 -183 32 -246 10z m194 -26 c45 -13 96 -47 121
-81 30 -39 101 -325 94 -372 -13 -77 -71 -158 -140 -194 -47 -25 -160 -23
-212 5 -64 33 -88 66 -160 214 -57 117 -66 145 -65 188 3 164 190 288 362 240z
m206 -96 c15 -20 51 -61 80 -90 62 -65 69 -83 48 -124 -38 -74 -97 -15 -143
145 -11 39 -23 78 -27 88 -12 30 13 19 42 -19z m260 -123 l9 -35 69 -1 c85 -2
129 -20 189 -75 l46 -42 31 26 c17 14 34 26 38 26 13 0 -8 -97 -41 -188 -34
-93 -78 -152 -137 -181 -95 -48 -197 -29 -273 49 -71 74 -85 150 -47 263 28
86 90 210 100 200 4 -4 11 -23 16 -42z m-789 -258 c14 -48 14 -54 -2 -77 -18
-29 -52 -34 -80 -13 -16 12 -18 29 -17 152 1 76 4 142 7 147 7 11 68 -130 92
-209z"/>
<path d="M904 1705 c-7 -18 3 -35 21 -35 15 0 28 27 19 41 -8 14 -34 11 -40
-6z"/>
<path d="M602 1588 c2 -12 10 -23 18 -23 22 0 19 39 -3 43 -15 3 -18 -1 -15
-20z"/>
<path d="M822 1433 c-19 -9 -41 -31 -50 -49 -14 -30 -14 -35 2 -58 31 -48 112
-46 165 3 81 75 -11 156 -117 104z"/>
<path d="M1354 1485 c-4 -9 -2 -21 4 -27 15 -15 44 -1 40 19 -4 23 -36 29 -44
8z"/>
<path d="M1514 1429 c-3 -6 0 -18 9 -26 18 -18 37 -9 37 18 0 21 -34 27 -46 8z"/>
<path d="M1290 1394 c0 -44 58 -81 102 -65 17 6 27 2 46 -21 27 -32 75 -38
108 -14 26 19 10 32 -22 18 -29 -14 -57 -3 -74 29 -9 15 -8 24 1 35 9 11 9 18
1 26 -12 12 -46 3 -38 -11 3 -4 -3 -16 -14 -26 -25 -23 -67 -13 -82 20 -13 28
-28 33 -28 9z"/>
<path d="M975 968 c-35 -30 -45 -80 -44 -218 1 -156 13 -200 62 -224 34 -16
42 -17 75 -4 61 23 72 57 72 231 0 158 -10 206 -48 226 -35 18 -89 13 -117
-11z m89 -54 c12 -31 7 -319 -6 -332 -16 -16 -23 -15 -42 4 -13 13 -16 42 -16
160 0 81 5 154 10 165 13 23 46 25 54 3z"/>
<path d="M1915 966 c-30 -30 -40 -84 -25 -130 6 -19 36 -62 66 -96 50 -56 54
-65 54 -109 0 -36 -4 -51 -16 -55 -26 -10 -43 12 -46 62 -3 45 -4 47 -33 47
-30 0 -30 0 -28 -55 4 -90 56 -133 131 -109 37 12 47 27 57 85 10 64 -9 113
-70 184 -48 56 -56 69 -53 100 3 30 7 35 28 35 22 0 25 -5 28 -42 3 -40 5 -43
33 -43 27 0 29 2 29 40 0 46 -21 95 -45 104 -37 14 -86 6 -110 -18z"/>
<path d="M94 965 c-8 -21 4 -35 32 -35 l24 0 0 -206 0 -205 33 3 32 3 3 203 2
202 25 0 c20 0 25 5 25 25 0 25 -1 25 -85 25 -66 0 -87 -3 -91 -15z"/>
<path d="M300 749 l0 -230 33 3 32 3 3 108 3 108 27 -3 27 -3 5 -105 5 -105
33 -3 32 -3 0 78 c-1 86 -12 152 -30 163 -8 5 -7 10 4 19 32 26 31 154 -1 186
-10 11 -37 15 -94 15 l-79 0 0 -231z m128 120 c3 -59 -13 -87 -43 -75 -11 4
-15 22 -15 71 l0 66 28 -3 c25 -3 27 -6 30 -59z"/>
<path d="M560 749 l0 -230 33 3 32 3 3 228 2 227 -35 0 -35 0 0 -231z"/>
<path d="M692 753 l3 -228 59 -3 c109 -6 136 22 136 137 0 52 -5 74 -19 92
-17 22 -17 27 -5 44 20 26 18 134 -2 163 -13 20 -24 22 -95 22 l-79 0 2 -227z
m122 161 c12 -31 6 -93 -10 -109 -28 -27 -39 -12 -42 58 -3 65 -2 67 21 67 14
0 28 -7 31 -16z m-4 -174 c11 -7 15 -28 15 -80 0 -73 -9 -90 -47 -90 -16 0
-18 11 -18 83 0 99 9 113 50 87z"/>
<path d="M1280 749 l0 -230 33 3 32 3 3 93 3 92 37 0 c42 0 55 7 69 35 32 61
21 205 -17 225 -10 6 -50 10 -89 10 l-71 0 0 -231z m124 165 c11 -28 6 -130
-6 -142 -7 -7 -20 -12 -30 -12 -16 0 -18 10 -18 85 0 83 1 85 24 85 13 0 27
-7 30 -16z"/>
<path d="M1520 750 l0 -230 75 0 75 0 0 30 c0 29 -2 30 -45 30 l-45 0 0 75 0
75 40 0 c38 0 40 2 40 30 0 28 -2 30 -40 30 l-41 0 3 68 3 67 43 3 c37 3 42 6
42 28 0 23 -2 24 -75 24 l-75 0 0 -230z"/>
<path d="M1690 955 c0 -20 5 -25 25 -25 l25 0 2 -202 3 -203 33 -3 32 -3 0
205 0 206 25 0 c20 0 25 5 25 25 0 25 -1 25 -85 25 -84 0 -85 0 -85 -25z"/>
</g>
</svg>
